<svg width="98" height="105" viewBox="0 0 98 105" fill="none" xmlns="http://www.w3.org/2000/svg">
<path d="M76.163 42.041H20.6921" stroke="#C84B31" stroke-width="1.66517" stroke-miterlimit="10" stroke-linecap="round" stroke-linejoin="round"/>
<path d="M46.8145 31.739C46.8145 28.409 51.2896 28.409 51.2896 24.975C51.2896 21.645 46.8145 21.645 46.8145 18.2109" stroke="#C84B31" stroke-width="1.66517" stroke-miterlimit="10" stroke-linecap="round" stroke-linejoin="round"/>
<path d="M45.8777 38.2946C45.8777 34.9647 41.4026 34.9647 41.4026 31.5306C41.4026 28.2006 45.8777 28.2006 45.8777 24.7666" stroke="#C84B31" stroke-width="1.66517" stroke-miterlimit="10" stroke-linecap="round" stroke-linejoin="round"/>
<path d="M50.8733 33.8214C50.8733 30.491 55.3484 30.491 55.3484 27.0566" stroke="#C84B31" stroke-width="1.66517" stroke-miterlimit="10" stroke-linecap="round" stroke-linejoin="round"/>
<path d="M20.6921 64.3103C23.7385 64.3103 26.208 59.3251 26.208 53.1756C26.208 47.0262 23.7385 42.041 20.6921 42.041C17.6458 42.041 15.1763 47.0262 15.1763 53.1756C15.1763 59.3251 17.6458 64.3103 20.6921 64.3103Z" stroke="#C84B31" stroke-width="1.66517" stroke-miterlimit="10" stroke-linecap="round" stroke-linejoin="round"/>
<path d="M76.1631 42.041C79.2853 42.041 81.679 47.036 81.679 53.1756" stroke="#C84B31" stroke-width="1.66517" stroke-miterlimit="10" stroke-linecap="round" stroke-linejoin="round"/>
<path d="M22.4613 53.1756C22.4613 56.9218 21.3165 59.2112 20.6921 59.8355C20.0677 59.2112 18.9229 56.9218 18.9229 53.1756C18.9229 49.4294 20.0677 47.14 20.6921 46.5156" stroke="#C84B31" stroke-width="1.66517" stroke-miterlimit="10" stroke-linecap="round" stroke-linejoin="round"/>
<path d="M28.6017 62.75C29.1221 61.6052 29.4343 60.1481 29.6424 59.1074C29.8506 58.2748 30.5791 57.6504 31.4117 57.6504H82.4074C83.344 57.6504 84.0726 58.3789 84.0726 59.3156C84.0726 60.2522 83.8644 61.1889 83.344 61.9174C83.24 62.1255 82.9278 62.5418 82.5115 62.9581C81.2626 64.207 79.5974 64.3111 78.973 64.4151C61.4887 64.4151 44.0045 64.4151 26.5203 64.4151C27.4569 64.3111 28.0814 63.6866 28.6017 62.75Z" stroke="#C84B31" stroke-width="1.66517" stroke-miterlimit="10" stroke-linecap="round" stroke-linejoin="round"/>
<path d="M26.6243 64.3105H20.6921" stroke="#C84B31" stroke-width="1.66517" stroke-miterlimit="10" stroke-linecap="round" stroke-linejoin="round"/>
<path d="M15.0723 64.3105H8.82788" stroke="#C84B31" stroke-width="1.66517" stroke-miterlimit="10" stroke-linecap="round" stroke-linejoin="round"/>
<path d="M8.82787 86.5798C11.8742 86.5798 14.3437 81.5947 14.3437 75.4452C14.3437 69.2957 11.8742 64.3105 8.82787 64.3105C5.78155 64.3105 3.31201 69.2957 3.31201 75.4452C3.31201 81.5947 5.78155 86.5798 8.82787 86.5798Z" stroke="#C84B31" stroke-width="1.66517" stroke-miterlimit="10" stroke-linecap="round" stroke-linejoin="round"/>
<path d="M10.5971 75.4446C10.5971 79.0867 9.45227 81.3761 8.82783 82.0005C8.20339 81.3761 7.05859 79.0867 7.05859 75.4446C7.05859 71.8024 8.20339 69.513 8.82783 68.8887" stroke="#C84B31" stroke-width="1.66517" stroke-miterlimit="10" stroke-linecap="round" stroke-linejoin="round"/>
<path d="M25.0632 86.6841C23.0858 86.6841 16.7374 86.6841 14.76 86.6841C15.6967 86.6841 16.3211 86.0597 16.7374 85.123C17.2578 83.9782 17.6741 82.4171 17.8822 81.3764C17.9863 80.5438 18.7148 80.0234 19.5474 80.0234H23.0858" stroke="#C84B31" stroke-width="1.66517" stroke-miterlimit="10" stroke-linecap="round" stroke-linejoin="round"/>
<path d="M14.76 86.6836H8.82788" stroke="#C84B31" stroke-width="1.66517" stroke-miterlimit="10" stroke-linecap="round" stroke-linejoin="round"/>
<path d="M31.2036 86.5798C34.2499 86.5798 36.7195 81.5947 36.7195 75.4452C36.7195 69.2957 34.2499 64.3105 31.2036 64.3105C28.1573 64.3105 25.6877 69.2957 25.6877 75.4452C25.6877 81.5947 28.1573 86.5798 31.2036 86.5798Z" stroke="#C84B31" stroke-width="1.66517" stroke-miterlimit="10" stroke-linecap="round" stroke-linejoin="round"/>
<path d="M32.9728 75.4446C32.9728 79.0867 31.828 81.3761 31.2036 82.0005C30.5791 81.3761 29.4343 79.0867 29.4343 75.4446C29.4343 71.8024 30.5791 69.513 31.2036 68.8887" stroke="#C84B31" stroke-width="1.66517" stroke-miterlimit="10" stroke-linecap="round" stroke-linejoin="round"/>
<path d="M39.1131 85.0195C39.7376 83.7706 40.0498 82.1055 40.2579 81.0647C40.362 80.4403 40.9864 79.9199 41.6109 79.9199H93.0229C93.9595 79.9199 94.688 80.6484 94.688 81.5851C94.688 82.5217 94.4799 83.4584 93.9595 84.1869C93.8555 84.3951 93.5432 84.8113 93.1269 85.2276C91.8781 86.4765 90.2129 86.5806 89.5885 86.6847C72.1042 86.6847 54.62 86.6847 37.1357 86.6847C38.0724 86.6847 38.6968 85.9561 39.1131 85.0195Z" stroke="#C84B31" stroke-width="1.66517" stroke-miterlimit="10" stroke-linecap="round" stroke-linejoin="round"/>
<path d="M37.1358 86.6836H31.2036" stroke="#C84B31" stroke-width="1.66517" stroke-miterlimit="10" stroke-linecap="round" stroke-linejoin="round"/>
<path d="M85.0093 64.3107C86.5704 64.3107 88.3396 64.1026 89.5885 65.2473C92.2944 67.6407 92.9188 72.1153 92.9188 75.4453" stroke="#C84B31" stroke-width="1.66517" stroke-miterlimit="10" stroke-linecap="round" stroke-linejoin="round"/>
</svg>
