<svg width="97" height="105" viewBox="0 0 97 105" fill="none" xmlns="http://www.w3.org/2000/svg">
<path d="M41.3188 42.0412C41.3188 36.63 48.3958 36.63 48.3958 31.3229C48.3958 25.9116 41.3188 25.9116 41.3188 20.6045" stroke="#C84B31" stroke-width="1.66517" stroke-miterlimit="10" stroke-linecap="round" stroke-linejoin="round"/>
<path d="M48.1875 42.0418C48.1875 37.3585 54.3278 37.3585 54.3278 32.7793" stroke="#C84B31" stroke-width="1.66517" stroke-miterlimit="10" stroke-linecap="round" stroke-linejoin="round"/>
<path d="M52.4546 42.041C60.6763 42.2492 68.0655 42.6655 73.6855 43.394" stroke="#C84B31" stroke-width="1.66517" stroke-miterlimit="10" stroke-linecap="round" stroke-linejoin="round"/>
<path d="M70.5636 50.2622C65.2559 50.7826 58.8034 51.1989 51.6224 51.3029C49.8531 51.3029 48.0839 51.3029 46.3147 51.3029C25.396 51.3029 8.43213 49.2215 8.43213 46.6197C8.43213 45.3708 12.491 44.226 19.2557 43.3934C24.0431 42.769 29.9752 42.3527 36.7399 42.1445" stroke="#C84B31" stroke-width="1.66517" stroke-miterlimit="10" stroke-linecap="round" stroke-linejoin="round"/>
<path d="M68.1699 63.8937C59.4278 64.7263 51.9346 65.0385 45.8983 65.0385C40.6947 65.0385 35.4911 64.9344 30.3915 64.6222C26.5408 64.4141 22.6901 64.1019 18.8394 63.6856C16.0294 63.3733 13.2195 62.9571 10.4095 62.6448C9.36877 62.5408 7.7036 62.1245 7.07917 62.5408C6.5588 62.957 6.35066 63.4774 6.24658 64.1019C6.03844 65.4548 6.03844 66.9118 6.45473 68.2648C6.87102 69.6177 8.1199 70.6584 9.57692 70.9707C9.78506 70.9707 10.0973 71.0747 10.3054 71.0747" stroke="#C84B31" stroke-width="1.66517" stroke-miterlimit="10" stroke-linecap="round" stroke-linejoin="round"/>
<path d="M10.2012 71.0742C13.2193 71.3864 17.3822 71.8027 22.3777 72.219C29.1424 72.7394 37.3642 73.3638 47.6674 73.2597C53.0792 73.2597 60.1561 72.9475 68.586 72.1149" stroke="#C84B31" stroke-width="1.66517" stroke-miterlimit="10" stroke-linecap="round" stroke-linejoin="round"/>
<path d="M16.7578 97.5069C16.5497 97.5069 16.2374 97.4029 16.0293 97.4029C14.5723 97.0906 13.4275 96.154 12.9071 94.801C12.3867 93.4481 12.3867 92.0951 12.5949 90.6381C12.699 90.0137 12.9071 89.4933 13.4275 89.077C13.7397 88.7648 14.3641 88.7648 14.9886 88.8689C15.613 88.8689 16.2374 88.973 16.7578 89.077C17.6945 89.1811 18.527 89.1811 19.4637 89.3892C21.337 89.7015 33.0972 90.8463 47.9797 90.7422" stroke="#C84B31" stroke-width="1.66517" stroke-miterlimit="10" stroke-linecap="round" stroke-linejoin="round"/>
<path d="M16.7578 97.5059C19.7759 97.8181 23.9388 98.1303 28.9343 98.3384C35.6991 98.7547 43.9208 99.171 54.224 98.8588" stroke="#C84B31" stroke-width="1.66517" stroke-miterlimit="10" stroke-linecap="round" stroke-linejoin="round"/>
<path d="M14.8845 88.8688C12.4908 83.3535 11.1378 77.2139 10.2012 71.0742" stroke="#C84B31" stroke-width="1.66517" stroke-miterlimit="10" stroke-linecap="round" stroke-linejoin="round"/>
<path d="M9.05645 62.4369C9.05645 61.7085 8.64016 45.3708 7.28721 37.7743C6.66277 33.8199 5.4139 30.0737 4.37317 26.2234C3.22837 22.165 2.60393 17.2741 4.47724 13.2157C5.72612 10.6141 8.74423 8.32475 11.7623 9.15724C17.7986 10.8222 19.2556 19.6675 18.8393 24.8706C18.5271 29.2412 17.9026 33.5077 18.3189 37.9824" stroke="#C84B31" stroke-width="1.66517" stroke-miterlimit="10" stroke-linecap="round" stroke-linejoin="round"/>
<path d="M11.5571 25.0659C12.9308 24.939 13.8557 22.7946 13.623 20.2762C13.3902 17.7578 12.088 15.8191 10.7143 15.946C9.34063 16.0729 8.41571 18.2173 8.64843 20.7358C8.88116 23.2542 10.1834 25.1928 11.5571 25.0659Z" stroke="#C84B31" stroke-width="1.66517" stroke-miterlimit="10" stroke-linecap="round" stroke-linejoin="round"/>
<path d="M80.8666 84.8107C80.9706 86.1637 74.7263 87.5166 66.9208 87.9329C59.1154 88.2451 52.871 87.4125 52.7669 86.0596C52.6628 84.7066 58.9072 83.3537 66.7127 82.9374C70.4593 82.7292 73.8937 82.8333 76.3914 83.1455" stroke="#C84B31" stroke-width="1.66517" stroke-miterlimit="10" stroke-linecap="round" stroke-linejoin="round"/>
<path d="M52.7671 86.0593C53.0793 93.8639 59.6359 99.7955 67.4414 99.4833C75.2468 99.1711 81.179 92.6152 80.8668 84.8105" stroke="#C84B31" stroke-width="1.66517" stroke-miterlimit="10" stroke-linecap="round" stroke-linejoin="round"/>
<path d="M73.6857 82.9374C73.3735 75.1328 72.8532 55.4651 75.7672 48.8051C77.1201 45.6832 79.4097 43.3939 82.3238 42.2492C86.3826 40.6883 90.6496 41.833 91.8985 42.3533C93.6677 43.1858 94.5003 45.267 93.6677 47.0361C92.8351 48.8051 90.8578 49.6376 89.0885 48.8051C88.4641 48.597 84.1971 47.1401 82.2197 51.5107C80.1383 56.2976 80.2423 74.8206 80.8668 85.4349C80.8668 85.7471 80.8668 86.1633 80.7627 86.4755" stroke="#C84B31" stroke-width="1.66517" stroke-miterlimit="10" stroke-linecap="round" stroke-linejoin="round"/>
</svg>
