<svg width="97" height="105" viewBox="0 0 97 105" fill="none" xmlns="http://www.w3.org/2000/svg">
<path d="M65.4639 16.1289L65.7761 18.0022" stroke="#C84B31" stroke-width="1.66517" stroke-miterlimit="10" stroke-linecap="round" stroke-linejoin="round"/>
<path d="M43.8164 44.1223C43.192 43.2898 42.5676 42.4573 42.0472 41.5208C37.468 33.4039 38.4047 20.8124 28.4137 16.5459C28.4137 16.5459 25.6037 23.6221 30.287 31.843" stroke="#C84B31" stroke-width="1.66517" stroke-miterlimit="10" stroke-linecap="round" stroke-linejoin="round"/>
<path d="M60.0518 52.5504C58.3866 55.4642 55.9929 58.1698 53.183 59.9388C49.8526 62.0201 46.3142 62.2282 42.5675 62.2282C40.7983 62.2282 39.0291 62.2282 37.2598 62.2282C23.7303 62.1241 19.9837 63.2688 18.2145 60.5632C16.6534 58.2739 18.0063 52.5504 19.0471 50.053C18.6308 49.3245 14.4679 43.9133 14.676 36.3168C14.676 35.4843 14.8842 31.9462 16.8615 27.7837C20.1919 20.8116 26.124 17.4816 28.5177 16.3369" stroke="#C84B31" stroke-width="1.66517" stroke-miterlimit="10" stroke-linecap="round" stroke-linejoin="round"/>
<path d="M24.5633 18.835C19.0474 26.8477 22.2737 39.6473 28.8303 46.2032" stroke="#C84B31" stroke-width="1.66517" stroke-miterlimit="10" stroke-linecap="round" stroke-linejoin="round"/>
<path d="M38.7168 32.1543C40.9023 33.1949 42.8797 34.964 44.4408 36.8371C47.563 40.6874 48.1874 45.2661 49.5404 49.9489" stroke="#C84B31" stroke-width="1.66517" stroke-miterlimit="10" stroke-linecap="round" stroke-linejoin="round"/>
<path d="M31.8481 15.1927C35.1785 14.152 37.8844 13.8399 39.9658 13.9439C45.6898 14.048 47.9794 15.9211 51.2057 14.4642C53.2872 13.5277 56.8256 10.718 57.8664 10.3018C58.1786 10.1977 58.5949 10.1977 58.803 10.4058C60.156 11.5505 61.0926 14.5683 61.0926 14.5683H63.1741C63.6944 14.5683 64.2148 14.7764 64.527 15.1927L65.4637 16.4414C66.7126 15.1927 68.0655 16.4414 68.0655 16.4414L69.4184 18.3145L72.0203 18.5226C76.1832 19.3551 75.2465 24.7664 74.3099 28.0963C73.8936 29.6573 73.3732 31.3223 73.061 32.9872C72.8528 34.0279 73.4773 35.1725 74.518 35.4847C75.6628 35.901 76.9117 36.4213 78.2646 37.0457C79.4094 37.67 82.0113 38.7106 83.9886 39.5431C85.4457 40.1675 86.9027 40.4797 88.3597 40.6878L93.3552 41.2081" stroke="#C84B31" stroke-width="1.66517" stroke-miterlimit="10" stroke-linecap="round" stroke-linejoin="round"/>
<path d="M23.9387 79.2949H51.8302C52.7669 79.2949 53.4954 80.0233 53.4954 80.9599V83.9777C53.4954 84.9142 52.7669 85.6427 51.8302 85.6427H17.278C16.1332 85.6427 15.1966 84.7061 15.1966 83.5614V78.0462C15.1966 75.8609 16.9658 74.0918 19.1513 74.0918H54.328C56.5135 74.0918 58.2827 75.8609 58.2827 78.0462V86.163C58.2827 88.3483 56.5135 90.1173 54.328 90.1173H4.37299C3.5404 90.1173 3.22818 88.9726 3.95669 88.5564L10.2011 84.3939" stroke="#C84B31" stroke-width="1.66517" stroke-miterlimit="10" stroke-linecap="round" stroke-linejoin="round"/>
<path d="M28.8303 66.7041L16.7578 74.7177" stroke="#C84B31" stroke-width="1.66517" stroke-miterlimit="10" stroke-linecap="round" stroke-linejoin="round"/>
<path d="M57.6582 88.1409L65.88 78.0469" stroke="#C84B31" stroke-width="1.66517" stroke-miterlimit="10" stroke-linecap="round" stroke-linejoin="round"/>
<path d="M54.6401 73.989L65.3596 64.7266" stroke="#C84B31" stroke-width="1.66517" stroke-miterlimit="10" stroke-linecap="round" stroke-linejoin="round"/>
<path d="M18.9434 50.1572L20.8167 50.5735C24.4592 51.4061 28.1018 51.8224 31.8484 51.8224H37.5724" stroke="#C84B31" stroke-width="1.66517" stroke-miterlimit="10" stroke-linecap="round" stroke-linejoin="round"/>
<path d="M55.9932 50.1572C55.9932 50.1572 62.4457 53.4872 63.5905 54.1116C68.586 56.7131 72.3326 61.2918 71.8122 64.5178C71.7082 65.3503 71.6041 66.1828 71.6041 67.1193C71.8122 74.4036 76.5996 80.7514 83.2603 83.5611C84.5091 84.0814 85.6539 84.4976 86.7987 85.018" stroke="#C84B31" stroke-width="1.66517" stroke-miterlimit="10" stroke-linecap="round" stroke-linejoin="round"/>
<path d="M71.812 64.5189C72.5405 62.8537 73.8935 60.2519 76.5994 58.2745C77.536 57.546 78.6808 57.0257 79.8256 56.6094" stroke="#C84B31" stroke-width="1.66517" stroke-miterlimit="10" stroke-linecap="round" stroke-linejoin="round"/>
<path d="M73.165 32.7793C73.165 32.7793 71.6039 38.9196 68.0654 40.5848" stroke="#C84B31" stroke-width="1.66517" stroke-miterlimit="10" stroke-linecap="round" stroke-linejoin="round"/>
</svg>
