<svg width="97" height="105" viewBox="0 0 97 105" fill="none" xmlns="http://www.w3.org/2000/svg">
<path d="M19.1516 57.0264C18.8394 55.8818 18.319 52.6558 19.7761 49.0137C21.2331 45.3715 23.939 43.4984 24.9797 42.874" stroke="#C84B31" stroke-width="1.66517" stroke-miterlimit="10" stroke-linecap="round" stroke-linejoin="round"/>
<path d="M53.704 85.1233C52.5592 85.6436 50.6859 86.2681 48.2922 86.3721C45.8986 86.3721 43.9212 85.7477 42.7764 85.1233C43.0886 84.707 43.4008 84.2907 43.713 83.8744C44.1293 83.354 44.6497 82.9377 45.17 82.8337C45.2741 82.8337 45.4823 82.7296 45.7945 82.7296C47.0434 82.6255 47.2515 83.1459 48.2922 83.1459C49.2289 83.1459 49.5411 82.7296 50.6859 82.8337C50.9981 82.8337 51.2063 82.9377 51.4144 83.0418C51.9348 83.2499 52.3511 83.5622 52.6633 83.9785C53.0796 84.2907 53.3918 84.707 53.704 85.1233Z" stroke="#C84B31" stroke-width="1.66517" stroke-miterlimit="10" stroke-linecap="round" stroke-linejoin="round"/>
<path d="M44.1289 88.4531L45.4819 89.4939C45.8981 89.702 46.4185 89.9101 46.9389 89.9101C47.0429 89.9101 47.147 89.9101 47.2511 89.9101H49.3325C49.5407 89.9101 49.7488 89.9101 49.957 89.9101C50.4773 89.8061 50.8936 89.702 51.3099 89.3898L52.4547 88.4531" stroke="#C84B31" stroke-width="1.66517" stroke-miterlimit="10" stroke-linecap="round" stroke-linejoin="round"/>
<path d="M51.4141 75.6533C51.31 75.9655 51.1019 76.0696 50.0611 76.7981C49.0204 77.5266 47.1471 77.5266 46.1064 76.7981C45.0656 76.0696 44.7534 75.9655 44.7534 75.6533" stroke="#C84B31" stroke-width="1.66517" stroke-miterlimit="10" stroke-linecap="round" stroke-linejoin="round"/>
<path d="M30.1831 64.8309C30.3913 64.7268 30.9116 64.3105 31.7442 64.3105C32.6809 64.3105 33.3053 64.7268 33.4094 64.8309C33.9297 65.3513 34.8664 65.9757 36.1153 66.1839C37.0519 66.392 37.8845 66.2879 38.3008 66.2879C38.8212 66.2879 39.1334 66.1839 41.1108 65.6635C41.7352 65.4553 42.3596 65.3513 42.7759 65.2472" stroke="#C84B31" stroke-width="1.66517" stroke-miterlimit="10" stroke-linecap="round" stroke-linejoin="round"/>
<path d="M33.6177 67.433C34.034 66.3923 35.2828 66.1842 35.5951 66.0801" stroke="#C84B31" stroke-width="1.66517" stroke-miterlimit="10" stroke-linecap="round" stroke-linejoin="round"/>
<path d="M65.6724 64.8309C65.4643 64.7268 64.9439 64.3105 64.1113 64.3105C63.1747 64.3105 62.5502 64.7268 62.4461 64.8309C61.9258 65.3513 60.9891 65.9757 59.7403 66.1839C58.8036 66.392 57.971 66.2879 57.5547 66.2879C57.0344 66.2879 56.7221 66.1839 54.7448 65.6635C54.1203 65.4553 53.4959 65.3513 53.0796 65.2472" stroke="#C84B31" stroke-width="1.66517" stroke-miterlimit="10" stroke-linecap="round" stroke-linejoin="round"/>
<path d="M60.2607 66.0801C60.573 66.1842 61.8218 66.3923 62.2381 67.433" stroke="#C84B31" stroke-width="1.66517" stroke-miterlimit="10" stroke-linecap="round" stroke-linejoin="round"/>
<path d="M22.6902 87.0999C23.5228 85.7471 23.6268 84.0822 22.8983 82.6253C22.378 81.6887 21.5454 80.8562 20.9209 80.0237C18.6313 77.0059 18.7354 72.4272 21.025 69.5135C22.0657 68.0566 23.6268 67.016 24.5635 65.4551" stroke="#C84B31" stroke-width="1.66517" stroke-miterlimit="10" stroke-linecap="round" stroke-linejoin="round"/>
<path d="M71.188 66.0793C70.9799 70.9702 70.1473 75.0286 69.1066 79.1911C67.1292 86.5795 58.1789 93.8638 52.4549 97.8182C50.9979 98.8588 49.4368 99.275 47.7717 99.275H47.9798C46.3146 99.275 44.7535 98.7547 43.2965 97.8182C37.6766 93.8638 28.6222 86.5795 26.6449 79.1911C25.5001 75.0286 24.6675 70.3458 24.5634 65.4549C23.0023 63.7899 16.1335 55.7772 16.862 44.4344C17.1742 39.3354 18.8394 33.8201 22.3779 29.9698C30.2874 21.2286 43.0884 20.188 51.5183 12.2793" stroke="#C84B31" stroke-width="1.66517" stroke-miterlimit="10" stroke-linecap="round" stroke-linejoin="round"/>
<path d="M42.7761 58.6912C42.7761 58.6912 41.5273 57.0261 38.6132 56.5057C35.6992 55.9853 32.0566 56.5057 32.0566 56.5057" stroke="#C84B31" stroke-width="1.66517" stroke-miterlimit="10" stroke-linecap="round" stroke-linejoin="round"/>
<path d="M51.6226 58.6912C51.6226 58.6912 52.8714 57.0261 55.7855 56.5057C58.6995 55.9853 62.3421 56.5057 62.3421 56.5057" stroke="#C84B31" stroke-width="1.66517" stroke-miterlimit="10" stroke-linecap="round" stroke-linejoin="round"/>
<path d="M58.9074 27.9932C56.6178 32.2597 53.1834 35.6937 49.3327 38.5034C45.4821 41.3131 41.0069 43.2903 37.3644 46.204C35.0748 47.973 30.5996 51.5112 27.4774 57.6508C25.9164 60.5645 25.0838 63.5823 24.6675 65.4554" stroke="#C84B31" stroke-width="1.66517" stroke-miterlimit="10" stroke-linecap="round" stroke-linejoin="round"/>
<path d="M50.4775 41.833C52.4549 42.5614 54.5364 43.6021 56.7219 44.9549C66.2966 51.1986 69.8351 61.6048 71.188 65.9754" stroke="#C84B31" stroke-width="1.66517" stroke-miterlimit="10" stroke-linecap="round" stroke-linejoin="round"/>
<path d="M33.2015 18.4195C31.3282 14.7773 31.8485 12.4879 32.2648 11.4473C33.2015 8.84576 35.9074 7.28483 38.197 6.03609C40.9029 4.47516 43.5047 2.08174 46.6269 1.45737C48.6042 1.04112 51.9346 1.24925 61.7174 9.78232C68.4822 15.8179 73.998 21.7494 77.3284 30.2825C80.4505 38.3993 81.2831 47.5568 78.0569 55.7777C75.7673 61.6051 71.5003 65.7676 71.5003 65.7676C71.3962 65.8717 71.2921 65.9757 71.1881 66.0798" stroke="#C84B31" stroke-width="1.66517" stroke-miterlimit="10" stroke-linecap="round" stroke-linejoin="round"/>
<path d="M39.4458 29.9698C42.568 28.0967 45.5861 26.1195 48.3961 23.7261C51.102 21.4367 52.7671 18.9392 54.3282 15.8174" stroke="#C84B31" stroke-width="1.66517" stroke-miterlimit="10" stroke-linecap="round" stroke-linejoin="round"/>
<path d="M79.0973 52.2403C79.0973 52.2403 80.4503 48.91 75.1426 44.0186" stroke="#C84B31" stroke-width="1.66517" stroke-miterlimit="10" stroke-linecap="round" stroke-linejoin="round"/>
<path d="M36.4276 92.6152C36.4276 92.6152 39.4457 98.8589 35.9072 103.125" stroke="#C84B31" stroke-width="1.66517" stroke-miterlimit="10" stroke-linecap="round" stroke-linejoin="round"/>
<path d="M59.7401 92.1992C59.7401 92.1992 56.722 98.4429 60.2604 102.709" stroke="#C84B31" stroke-width="1.66517" stroke-miterlimit="10" stroke-linecap="round" stroke-linejoin="round"/>
</svg>
