<svg width="97" height="105" viewBox="0 0 97 105" fill="none" xmlns="http://www.w3.org/2000/svg">
<path d="M62.2378 73.1554C60.3644 72.5311 58.4911 71.4904 56.93 70.2417C55.3689 68.993 53.8079 67.432 53.8079 65.3508C53.7038 62.5411 56.4097 60.5639 57.3463 59.8355C57.6585 59.6274 60.8848 57.4421 64.6314 58.1705C66.0884 58.4827 67.6495 59.003 68.5862 60.0436C69.6269 61.1883 69.4188 62.4371 69.3147 63.7899" stroke="#C84B31" stroke-width="1.66517" stroke-miterlimit="10" stroke-linecap="round" stroke-linejoin="round"/>
<path d="M67.3534 76.8C68.3835 76.4374 68.9245 75.3084 68.5617 74.2784C68.199 73.2483 67.07 72.7073 66.0399 73.0699C65.0098 73.4326 64.4688 74.5616 64.8316 75.5916C65.1943 76.6216 66.3233 77.1627 67.3534 76.8Z" stroke="#C84B31" stroke-width="1.66517" stroke-miterlimit="10" stroke-linecap="round" stroke-linejoin="round"/>
<path d="M55.6811 69.0967C53.3915 68.6805 51.31 69.513 50.0611 71.4902C48.1878 74.7161 49.1245 78.5664 49.2286 78.8786C49.5408 80.0232 50.5815 83.2492 53.2874 84.0816C54.7444 84.4979 56.2014 84.1857 57.5544 83.5613" stroke="#C84B31" stroke-width="1.66517" stroke-miterlimit="10" stroke-linecap="round" stroke-linejoin="round"/>
<path d="M66.7127 76.902C67.8048 76.902 68.6901 76.0167 68.6901 74.9247C68.6901 73.8326 67.8048 72.9473 66.7127 72.9473C65.6207 72.9473 64.7354 73.8326 64.7354 74.9247C64.7354 76.0167 65.6207 76.902 66.7127 76.902Z" stroke="#C84B31" stroke-width="1.66517" stroke-miterlimit="10" stroke-linecap="round" stroke-linejoin="round"/>
<path d="M71.7083 86.5798C71.8124 88.0367 71.7083 89.5976 70.7717 90.7423C69.1065 93.0317 65.7762 92.8235 64.5273 92.8235C64.2151 92.8235 60.2603 92.5114 57.7626 89.5976C56.2015 87.8286 56.2015 85.5392 57.3463 83.562C58.6992 81.2727 61.0929 79.9199 62.9662 78.2549" stroke="#C84B31" stroke-width="1.66517" stroke-miterlimit="10" stroke-linecap="round" stroke-linejoin="round"/>
<path d="M68.563 75.6489C68.9247 74.6185 68.3826 73.4899 67.3521 73.1283C66.3216 72.7666 65.193 73.3088 64.8312 74.3392C64.4695 75.3697 65.0117 76.4983 66.0422 76.8599C67.0727 77.2216 68.2013 76.6794 68.563 75.6489Z" stroke="#C84B31" stroke-width="1.66517" stroke-miterlimit="10" stroke-linecap="round" stroke-linejoin="round"/>
<path d="M79.3055 74.0918C80.7625 74.404 82.1155 75.0284 82.9481 76.2771C84.5091 78.5665 83.2603 81.6883 82.844 82.833C82.7399 83.1452 81.1788 86.7873 77.5363 88.1402C75.3507 88.9726 73.1652 88.2442 71.7082 86.4752C70.043 84.498 69.5227 81.7924 68.4819 79.399" stroke="#C84B31" stroke-width="1.66517" stroke-miterlimit="10" stroke-linecap="round" stroke-linejoin="round"/>
<path d="M68.2336 76.208C68.9165 75.3558 68.7792 74.1114 67.9269 73.4285C67.0746 72.7457 65.8301 72.883 65.1472 73.7352C64.4643 74.5875 64.6016 75.8319 65.4539 76.5147C66.3062 77.1975 67.5507 77.0602 68.2336 76.208Z" stroke="#C84B31" stroke-width="1.66517" stroke-miterlimit="10" stroke-linecap="round" stroke-linejoin="round"/>
<path d="M71.6043 74.8203C74.2061 74.7162 76.912 75.0284 79.3057 74.1959C81.4912 73.3634 82.8442 71.5944 82.8442 69.201C82.7401 65.4547 79.8261 62.7491 79.6179 62.541C78.6813 61.8126 76.1835 59.5232 73.4776 60.2516C71.5002 60.7719 69.9392 62.541 69.1066 64.31C68.5862 65.3507 68.1699 66.4953 67.8577 67.64C67.6495 68.4725 67.4414 69.305 67.4414 70.1375" stroke="#C84B31" stroke-width="1.66517" stroke-miterlimit="10" stroke-linecap="round" stroke-linejoin="round"/>
<path d="M67.741 76.627C68.6679 76.0494 68.951 74.8299 68.3734 73.903C67.7957 72.9762 66.5761 72.6931 65.6492 73.2706C64.7223 73.8482 64.4392 75.0677 65.0169 75.9946C65.5945 76.9214 66.8142 77.2045 67.741 76.627Z" stroke="#C84B31" stroke-width="1.66517" stroke-miterlimit="10" stroke-linecap="round" stroke-linejoin="round"/>
<path d="M53.8076 11.0303C57.4502 11.0303 57.4502 15.9217 61.1968 15.9217C64.8393 15.9217 64.8393 11.0303 68.586 11.0303C72.2285 11.0303 72.2285 15.9217 75.9751 15.9217" stroke="#C84B31" stroke-width="1.66517" stroke-miterlimit="10" stroke-linecap="round" stroke-linejoin="round"/>
<path d="M51.5181 15.6094C55.1606 15.6094 55.1606 20.5008 58.9072 20.5008" stroke="#C84B31" stroke-width="1.66517" stroke-miterlimit="10" stroke-linecap="round" stroke-linejoin="round"/>
<path d="M44.1289 23.7256V31.6351" stroke="#C84B31" stroke-width="1.66517" stroke-miterlimit="10" stroke-linecap="round" stroke-linejoin="round"/>
<path d="M28.8301 39.6475C30.2871 40.6882 36.6355 41.5208 44.1288 41.5208C47.0428 41.5208 49.7487 41.4167 52.0383 41.2086" stroke="#C84B31" stroke-width="1.66517" stroke-miterlimit="10" stroke-linecap="round" stroke-linejoin="round"/>
<path d="M48.7081 27.0559C49.8529 26.0153 50.2691 24.3503 49.8529 22.5812C49.3325 20.2919 47.7714 18.2106 46.7307 16.3375C46.2103 15.401 45.2736 13.84 44.1288 11.7588C42.984 13.84 42.0474 15.401 41.527 16.3375C40.07 18.835 37.6763 21.8528 38.3008 24.9746C38.5089 26.0153 39.0293 26.7437 39.6537 27.264" stroke="#C84B31" stroke-width="1.66517" stroke-miterlimit="10" stroke-linecap="round" stroke-linejoin="round"/>
<path d="M30.5995 68.1602C31.5362 67.3277 31.9525 65.8708 31.6403 64.3099C31.224 62.3327 29.871 60.5637 28.9344 58.8987C28.414 58.0662 27.6855 56.7134 26.7488 54.9443C25.8122 56.7134 24.9796 58.0662 24.5633 58.8987C23.3144 60.9799 21.233 63.5815 21.8574 66.2871C22.0655 67.2236 22.4818 67.848 23.0022 68.2643" stroke="#C84B31" stroke-width="1.66517" stroke-miterlimit="10" stroke-linecap="round" stroke-linejoin="round"/>
<path d="M26.6445 66.4951V70.7621" stroke="#C84B31" stroke-width="1.66517" stroke-miterlimit="10" stroke-linecap="round" stroke-linejoin="round"/>
<path d="M13.2192 78.7745C13.2192 77.8379 13.6355 76.9014 14.4681 76.3811C16.0292 75.3404 17.7984 74.2998 19.6718 73.3633C20.7125 72.843 21.7532 72.3226 22.7939 71.8023C24.0428 71.0739 25.3958 70.7617 26.6446 70.7617C28.5179 70.7617 29.975 71.4902 30.5994 71.8023C31.5361 72.2186 32.4727 72.7389 33.4094 73.2592C35.2827 74.2998 37.0519 75.3404 38.7171 76.3811C39.5497 76.9014 40.07 77.8379 40.07 78.7745V89.3888C40.07 90.7416 39.1334 91.8863 37.8845 92.0944C34.5542 92.7188 30.5994 93.2391 26.0202 93.135C22.0654 93.135 18.527 92.6147 15.6129 92.0944C14.26 91.8863 13.3233 90.6375 13.3233 89.3888V78.7745H13.2192Z" stroke="#C84B31" stroke-width="1.66517" stroke-miterlimit="10" stroke-linecap="round" stroke-linejoin="round"/>
<path d="M13.5315 77.6299C14.7804 78.5665 20.1922 79.295 26.6447 79.295C29.1424 79.295 31.432 79.191 33.4094 78.9828" stroke="#C84B31" stroke-width="1.66517" stroke-miterlimit="10" stroke-linecap="round" stroke-linejoin="round"/>
<path d="M59.7398 53.0711V41.208C59.7398 39.9593 59.1153 38.7105 57.9705 38.0862C56.0972 36.9415 54.0157 35.6927 51.9343 34.5481C50.7895 33.9237 49.7488 33.2993 48.604 32.779C47.8754 32.3628 46.3143 31.5303 44.0247 31.5303C42.4637 31.5303 40.9026 31.9465 39.4455 32.779C38.3007 33.2993 37.0519 33.9237 35.9071 34.6521C33.8256 35.7968 31.8482 36.9415 30.079 38.0862C29.0383 38.7105 28.4138 39.9593 28.4138 41.104V51.8223" stroke="#C84B31" stroke-width="1.66517" stroke-miterlimit="10" stroke-linecap="round" stroke-linejoin="round"/>
</svg>
