<svg width="98" height="105" viewBox="0 0 98 105" fill="none" xmlns="http://www.w3.org/2000/svg">
<path d="M36.9277 94.0721H16.8416C15.8009 94.0721 14.8643 93.2396 14.8643 92.0949V57.026C14.8643 55.4651 16.1131 54.1123 17.7783 54.1123H26.3123" stroke="#C84B31" stroke-width="1.66517" stroke-miterlimit="10" stroke-linecap="round" stroke-linejoin="round"/>
<path d="M34.1177 54.1123H39.6335C41.1946 54.1123 42.5476 55.3612 42.5476 57.0263V60.2526" stroke="#C84B31" stroke-width="1.66517" stroke-miterlimit="10" stroke-linecap="round" stroke-linejoin="round"/>
<path d="M20.6924 48.9092V54.1128" stroke="#C84B31" stroke-width="1.66517" stroke-miterlimit="10" stroke-linecap="round" stroke-linejoin="round"/>
<path d="M36.7197 48.9092V54.1128" stroke="#C84B31" stroke-width="1.66517" stroke-miterlimit="10" stroke-linecap="round" stroke-linejoin="round"/>
<path d="M23.1899 34.9652V17.8991C23.1899 14.8813 25.6877 12.3838 28.7058 12.3838C31.7239 12.3838 34.2217 14.8813 34.2217 17.8991V34.9652" stroke="#C84B31" stroke-width="1.66517" stroke-miterlimit="10" stroke-linecap="round" stroke-linejoin="round"/>
<path d="M19.6516 39.5439H37.6562C39.9458 39.5439 41.7151 41.3132 41.7151 43.6028V48.8064H15.5928V43.6028C15.5928 41.4173 17.4661 39.5439 19.6516 39.5439Z" stroke="#C84B31" stroke-width="1.66517" stroke-miterlimit="10" stroke-linecap="round" stroke-linejoin="round"/>
<path d="M20.2759 34.9648H37.1357" stroke="#C84B31" stroke-width="1.66517" stroke-miterlimit="10" stroke-linecap="round" stroke-linejoin="round"/>
<path d="M49.6245 92.8255C55.4526 93.1377 55.8689 85.4363 61.697 85.7485C67.525 86.0607 67.1087 93.7621 73.0409 94.0743C78.869 94.3866 79.2853 86.6852 85.2174 86.9974" stroke="#C84B31" stroke-width="1.66517" stroke-miterlimit="10" stroke-linecap="round" stroke-linejoin="round"/>
<path d="M46.3984 85.4368C52.2265 85.749 52.6428 78.0476 58.4709 78.3598" stroke="#C84B31" stroke-width="1.66517" stroke-miterlimit="10" stroke-linecap="round" stroke-linejoin="round"/>
<path d="M57.2222 51.3037L39.3216 68.9942C38.4891 69.8267 38.0728 70.8673 38.1768 72.012C38.1768 72.2201 38.1768 72.4283 38.2809 72.6364C38.2809 72.6364 38.6972 73.9892 38.1768 74.5095" stroke="#C84B31" stroke-width="1.66517" stroke-miterlimit="10" stroke-linecap="round" stroke-linejoin="round"/>
<path d="M34.9504 85.9558C34.0137 87.4126 33.1811 88.8695 33.1811 90.0142C33.0771 92.1995 34.8463 93.9685 36.9278 93.9685C39.1133 94.0726 40.8825 92.3035 40.8825 90.2223C40.8825 89.2857 40.4662 88.3492 40.0499 87.5167C39.2174 85.8517 37.5522 84.1867 37.4481 82.3136C37.4481 82.1055 37.344 81.7933 37.344 81.5852C37.344 81.0649 37.344 80.4405 37.344 79.9202C37.4481 79.5039 37.5522 78.7755 37.8644 78.1511C37.9685 77.943 38.2807 77.3186 39.0092 76.9024C39.5296 76.5902 40.0499 76.278 40.6744 76.278C41.507 76.174 42.3395 76.4861 43.1721 76.278C43.9006 76.174 44.6291 75.7577 45.2536 75.2374C51.1857 69.3059 57.1179 63.4784 63.1541 57.5469" stroke="#C84B31" stroke-width="1.66517" stroke-miterlimit="10" stroke-linecap="round" stroke-linejoin="round"/>
<path d="M64.9233 43.7068L76.7876 32.156C78.4528 30.491 81.1587 30.491 82.8239 32.156C84.489 33.821 84.489 36.5266 82.8239 38.1916L70.9596 49.8465" stroke="#C84B31" stroke-width="1.66517" stroke-miterlimit="10" stroke-linecap="round" stroke-linejoin="round"/>
<path d="M60.4483 44.3308L70.3352 54.3208C71.584 55.5695 71.584 57.5467 70.3352 58.7954L67.4211 61.7092L53.0591 47.1405L55.9731 44.2268C57.222 43.0821 59.1994 43.0821 60.4483 44.3308Z" stroke="#C84B31" stroke-width="1.66517" stroke-miterlimit="10" stroke-linecap="round" stroke-linejoin="round"/>
<path d="M63.2583 42.042L72.6249 51.4085" stroke="#C84B31" stroke-width="1.66517" stroke-miterlimit="10" stroke-linecap="round" stroke-linejoin="round"/>
</svg>
