<svg width="97" height="105" viewBox="0 0 97 105" fill="none" xmlns="http://www.w3.org/2000/svg">
<path d="M36.6357 26.3281C34.5543 26.5363 33.5135 25.4955 32.9932 24.8711" stroke="#C84B31" stroke-width="1.66517" stroke-miterlimit="10" stroke-linecap="round" stroke-linejoin="round"/>
<path d="M42.8799 16.4423C42.984 16.4423 44.441 15.6098 45.898 16.4423C46.9387 17.0666 47.2509 18.2113 47.2509 18.5235C47.355 19.1479 47.2509 19.9804 46.8347 20.8129C46.3143 21.8535 45.898 22.9982 45.7939 24.1428C45.6898 25.4956 45.5858 27.2647 45.7939 28.6175C46.0021 28.6175 46.3143 28.6175 46.6265 28.7216C47.0428 28.8256 47.2509 29.0338 47.4591 29.1378" stroke="#C84B31" stroke-width="1.66517" stroke-miterlimit="10" stroke-linecap="round" stroke-linejoin="round"/>
<path d="M49.3325 19.251C49.8529 19.251 50.3732 19.355 50.8936 19.5632C51.9343 20.0835 52.2466 21.5403 52.2466 21.6444C52.2466 21.8525 52.3506 22.4769 52.0384 23.7256C51.518 25.4947 50.7895 25.9109 50.3732 27.2637C50.1651 27.9922 49.957 28.9287 50.2692 30.3856C50.3732 30.3856 50.6855 30.4897 50.8936 30.6978C51.1018 30.9059 51.3099 31.114 51.3099 31.2181" stroke="#C84B31" stroke-width="1.66517" stroke-miterlimit="10" stroke-linecap="round" stroke-linejoin="round"/>
<path d="M54.2241 23.6221C54.7445 23.7261 55.3689 23.9343 55.6811 24.3505C55.9934 24.6627 56.0974 25.0789 56.2015 25.2871C56.6178 26.5358 56.0974 27.6805 55.473 28.8252C54.8486 30.0739 54.4323 31.3226 54.3282 32.7795C54.4323 32.7795 54.5363 32.8836 54.6404 32.8836C54.8486 32.9876 55.0567 33.1958 55.0567 33.2998" stroke="#C84B31" stroke-width="1.66517" stroke-miterlimit="10" stroke-linecap="round" stroke-linejoin="round"/>
<path d="M42.8801 27.6804C42.672 27.5763 42.3597 27.3682 41.9434 27.1601C41.1109 26.8479 40.5905 27.2642 40.3823 26.952C39.9661 26.6398 40.4864 25.7032 40.9027 23.9342C40.9027 23.9342 41.2149 22.9976 41.4231 21.5407C41.6312 18.7311 41.0068 15.4011 37.9887 14.5686C35.595 13.9442 32.8891 14.9848 32.2647 17.4823C31.7443 19.3554 32.1606 21.4367 32.5769 23.3098C32.681 23.8301 32.8891 24.3504 33.2013 24.7667C33.2013 24.7667 33.2013 24.8707 33.3054 24.8707C34.3461 26.952 33.4095 28.9291 33.4095 28.9291C29.6628 35.381 31.6402 42.0409 33.9298 48.4928C34.4502 49.9496 34.9706 51.3024 35.3869 52.7593C35.6991 53.7999 36.0113 54.9446 36.3235 55.9852C36.7398 57.4421 37.052 58.899 37.2602 60.3558C37.2602 60.564 37.3642 60.8761 37.3642 61.0843C37.6765 63.4777 37.5724 65.7671 37.3642 67.9524" stroke="#C84B31" stroke-width="1.66517" stroke-miterlimit="10" stroke-linecap="round" stroke-linejoin="round"/>
<path d="M36.2192 84.1863C36.6355 85.227 37.1559 86.0594 37.9885 86.8919C41.3188 90.326 46.2102 89.8057 46.5225 89.8057C48.9161 89.7016 51.1017 88.5569 52.5587 86.7879C54.432 84.6026 54.8483 81.897 55.1605 79.0873C55.6809 73.468 55.3686 70.8664 55.9931 65.2471" stroke="#C84B31" stroke-width="1.66517" stroke-miterlimit="10" stroke-linecap="round" stroke-linejoin="round"/>
<path d="M58.2828 50.0537C58.9072 46.4116 58.8032 46.7238 59.7398 43.0816C60.3642 40.2719 59.8439 37.3582 58.1787 34.9648C57.6584 34.2363 58.2828 33.1957 58.6991 32.6754C59.2194 32.051 59.5317 31.2185 59.6357 30.386C59.6357 30.0739 59.6357 29.4495 59.3235 28.9292C59.0113 28.4089 58.595 28.2007 58.3869 28.0967" stroke="#C84B31" stroke-width="1.66517" stroke-miterlimit="10" stroke-linecap="round" stroke-linejoin="round"/>
<path d="M72.3331 66.9119C71.0842 60.356 72.6453 54.1123 72.6453 47.5564L75.0389 37.7745C75.143 37.2542 74.9349 36.7339 74.4145 36.5258C73.7901 36.2136 73.1656 36.5258 72.8534 37.1502L70.0435 43.3939" stroke="#C84B31" stroke-width="1.66517" stroke-miterlimit="10" stroke-linecap="round" stroke-linejoin="round"/>
<path d="M59.636 42.9775C60.1564 43.9141 60.5727 44.6425 61.093 45.9953L60.9889 51.3025C60.8849 52.6553 59.8441 53.8 58.4912 53.904C58.179 53.904 57.8668 53.904 57.5545 53.904C57.3464 53.904 57.1383 53.8 56.826 53.6959C55.7853 52.9675 54.7446 52.239 53.7038 51.5106C52.1428 50.47 50.2694 48.5969 48.2921 49.6375C48.0839 49.7416 46.5228 50.8862 46.731 51.0944C48.2921 52.4472 50.1654 53.5919 51.6224 55.1528C53.4957 57.234 54.3283 59.9396 56.2016 61.9168C56.5138 62.229 56.826 62.5412 57.1383 62.7493C59.3238 64.5183 61.7175 65.7671 62.8623 68.4727" stroke="#C84B31" stroke-width="1.66517" stroke-miterlimit="10" stroke-linecap="round" stroke-linejoin="round"/>
<path d="M59.6362 38.0869L64.0073 43.8103L66.401 48.389" stroke="#C84B31" stroke-width="1.66517" stroke-miterlimit="10" stroke-linecap="round" stroke-linejoin="round"/>
<path d="M60.3647 39.0234L66.6091 41.6253L69.2109 46.1004" stroke="#C84B31" stroke-width="1.66517" stroke-miterlimit="10" stroke-linecap="round" stroke-linejoin="round"/>
<path d="M36.1155 56.1934L34.2422 62.7493L34.6585 68.5767C34.7625 69.9295 35.9073 70.9701 37.2603 71.1783C37.7807 71.2823 38.4051 71.1783 38.9255 70.8661C39.9662 70.1376 41.0069 69.3052 41.9436 68.5767C43.4006 67.432 45.2739 65.5589 47.2513 66.4955C47.4594 66.5995 49.0205 67.7442 48.8124 67.9524C47.1472 69.5133 44.9617 70.9701 43.5047 72.7392C42.7761 73.6758 42.2558 74.8204 41.7354 75.8611C40.7988 77.526 39.8621 79.191 38.4051 80.4398C37.6766 81.0642 36.7399 81.2723 35.9073 81.7926C34.5544 82.7291 33.8259 84.186 33.2014 85.7469L32.7852 87.8282" stroke="#C84B31" stroke-width="1.66517" stroke-miterlimit="10" stroke-linecap="round" stroke-linejoin="round"/>
<path d="M35.1787 53.0713L30.8076 60.5637L29.1424 65.6628C29.1424 65.6628 28.518 66.8075 27.8936 67.3278" stroke="#C84B31" stroke-width="1.66517" stroke-miterlimit="10" stroke-linecap="round" stroke-linejoin="round"/>
<path d="M24.043 86.6832C24.2511 85.9547 24.4593 85.1222 24.6674 83.9776C25.3959 79.711 24.5633 72.1145 24.2511 69.0967C24.147 68.2642 24.2511 67.4317 24.5633 66.7033L26.8529 61.3961C27.3733 60.3555 28.1018 59.419 29.1425 58.7946L33.7217 55.8809" stroke="#C84B31" stroke-width="1.66517" stroke-miterlimit="10" stroke-linecap="round" stroke-linejoin="round"/>
<path d="M44.5454 54.7374C44.0251 54.0089 43.7128 53.1763 43.6088 52.2396C43.2965 49.1174 45.4821 46.3075 48.6043 45.9953C49.3328 45.8912 49.9572 45.9953 50.6857 46.0993" stroke="#C84B31" stroke-width="1.66517" stroke-miterlimit="10" stroke-linecap="round" stroke-linejoin="round"/>
</svg>
