<svg width="97" height="105" viewBox="0 0 97 105" fill="none" xmlns="http://www.w3.org/2000/svg">
<path d="M37.2598 74.6121C35.2824 73.8836 33.2009 72.843 31.2235 71.4902C28.3095 69.409 26.124 66.9115 24.4588 64.414C19.9837 57.5459 19.5674 50.2616 19.5674 49.0128C20.9203 49.0128 28.7258 49.325 35.6987 54.4241C35.6987 54.4241 33.7213 48.5966 39.029 41.7285" stroke="#C84B31" stroke-width="1.66517" stroke-miterlimit="10" stroke-linecap="round" stroke-linejoin="round"/>
<path d="M47.1468 76.3813C46.3142 77.2138 45.3776 77.8381 44.3368 78.3584C41.4228 79.9194 37.0517 81.7925 31.5359 81.7925C25.916 81.8965 21.1286 80.0234 17.4861 77.8381C12.5946 74.8203 9.57652 71.1782 9.05615 70.4497C9.68059 70.3457 16.029 66.8076 18.5268 65.871C19.0471 65.6629 19.7757 65.4548 20.6082 65.3507C20.6082 65.3507 18.1105 62.2288 17.6942 59.0029" stroke="#C84B31" stroke-width="1.66517" stroke-miterlimit="10" stroke-linecap="round" stroke-linejoin="round"/>
<path d="M55.4727 57.2344C55.4727 58.3791 55.3687 59.4197 55.1605 60.5644C54.1198 68.265 49.9569 73.364 47.7713 75.5493L47.1469 76.1737L46.5225 75.5493C44.3369 73.26 40.2781 68.1609 39.1333 60.5644C38.9251 59.4197 38.9251 58.2751 38.8211 57.2344C38.717 46.5161 45.1695 39.0236 46.3143 37.7749L47.0428 36.9424L47.7713 37.7749C49.1243 39.0236 55.5768 46.5161 55.4727 57.2344Z" stroke="#C84B31" stroke-width="1.66517" stroke-miterlimit="10" stroke-linecap="round" stroke-linejoin="round"/>
<path d="M57.1379 74.6121C59.1153 73.8836 61.1967 72.843 63.1741 71.4902C66.0882 69.409 68.2737 66.9115 69.9388 64.414C74.414 57.5459 74.8303 50.2616 74.8303 49.0128C73.4773 49.0128 65.6719 49.325 58.699 54.4241C58.699 54.4241 60.6764 48.5966 55.3687 41.7285" stroke="#C84B31" stroke-width="1.66517" stroke-miterlimit="10" stroke-linecap="round" stroke-linejoin="round"/>
<path d="M76.5996 58.8994C76.0792 62.1253 73.6856 65.2472 73.6856 65.2472C74.5181 65.3513 75.2466 65.5594 75.767 65.7675C78.2648 66.8081 84.6132 70.3462 85.2376 70.3462C84.6132 71.0747 81.6992 74.8209 76.8077 77.7346C73.1652 79.9199 68.4819 81.793 62.7579 81.689C57.242 81.5849 52.871 79.8158 49.9569 78.2549C48.9162 77.7346 47.147 76.2778 47.147 76.2778" stroke="#C84B31" stroke-width="1.66517" stroke-miterlimit="10" stroke-linecap="round" stroke-linejoin="round"/>
<path d="M5.21999 59.9479C5.2557 59.7792 5.1479 59.6135 4.97921 59.5778C4.81052 59.5421 4.64482 59.6499 4.6091 59.8186C4.57339 59.9873 4.68119 60.153 4.84988 60.1887C5.01857 60.2244 5.18427 60.1166 5.21999 59.9479Z" stroke="#C84B31" stroke-width="1.66517" stroke-miterlimit="10" stroke-linecap="round" stroke-linejoin="round"/>
<path d="M6.19831 56.3817C6.25029 56.2173 6.15913 56.0419 5.99471 55.9899C5.8303 55.9379 5.65488 56.0291 5.6029 56.1935C5.55092 56.3579 5.64207 56.5333 5.80649 56.5853C5.97091 56.6373 6.14633 56.5461 6.19831 56.3817Z" stroke="#C84B31" stroke-width="1.66517" stroke-miterlimit="10" stroke-linecap="round" stroke-linejoin="round"/>
<path d="M7.39123 52.8835C7.45886 52.7248 7.3851 52.5414 7.22648 52.4738C7.06785 52.4062 6.88443 52.48 6.8168 52.6386C6.74916 52.7972 6.82293 52.9806 6.98155 53.0482C7.14017 53.1158 7.32359 53.0421 7.39123 52.8835Z" stroke="#C84B31" stroke-width="1.66517" stroke-miterlimit="10" stroke-linecap="round" stroke-linejoin="round"/>
<path d="M8.74407 49.1173C8.84814 49.2214 8.95221 49.3255 8.84814 49.5336C8.74407 49.6377 8.53592 49.7418 8.43185 49.6377C8.32778 49.5336 8.2237 49.3255 8.32778 49.2214C8.43185 49.1173 8.63999 49.0133 8.74407 49.1173Z" stroke="#C84B31" stroke-width="1.66517" stroke-miterlimit="10" stroke-linecap="round" stroke-linejoin="round"/>
<path d="M10.6171 45.8916C10.7212 45.9957 10.8253 46.2038 10.7212 46.3079C10.6171 46.412 10.409 46.516 10.3049 46.412C10.2008 46.3079 10.0968 46.0998 10.2008 45.9957C10.3049 45.7875 10.409 45.7875 10.6171 45.8916Z" stroke="#C84B31" stroke-width="1.66517" stroke-miterlimit="10" stroke-linecap="round" stroke-linejoin="round"/>
<path d="M12.6987 42.7695C12.8028 42.8736 12.8028 43.0818 12.6987 43.1858C12.5947 43.2899 12.3865 43.394 12.2824 43.2899C12.1784 43.1858 12.0743 42.9777 12.1784 42.8736C12.3865 42.6655 12.5947 42.6655 12.6987 42.7695Z" stroke="#C84B31" stroke-width="1.66517" stroke-miterlimit="10" stroke-linecap="round" stroke-linejoin="round"/>
<path d="M15.0925 39.9599C15.1966 40.064 15.1966 40.2721 15.0925 40.3762C14.9884 40.4803 14.7803 40.4803 14.6762 40.3762C14.5721 40.2721 14.5721 40.064 14.6762 39.9599C14.7803 39.8558 14.8843 39.8558 15.0925 39.9599Z" stroke="#C84B31" stroke-width="1.66517" stroke-miterlimit="10" stroke-linecap="round" stroke-linejoin="round"/>
<path d="M17.6941 37.2548C17.7981 37.3589 17.7981 37.567 17.6941 37.6711C17.59 37.7752 17.3818 37.7752 17.2778 37.6711C17.1737 37.567 17.1737 37.3589 17.2778 37.2548C17.3818 37.1507 17.59 37.1507 17.6941 37.2548Z" stroke="#C84B31" stroke-width="1.66517" stroke-miterlimit="10" stroke-linecap="round" stroke-linejoin="round"/>
<path d="M20.5041 34.8613C20.6082 34.9653 20.6082 35.1735 20.5041 35.2776C20.4 35.3816 20.1919 35.3816 20.0878 35.2776C19.9837 35.1735 19.9837 34.9653 20.0878 34.8613C20.1919 34.7572 20.4 34.7572 20.5041 34.8613Z" stroke="#C84B31" stroke-width="1.66517" stroke-miterlimit="10" stroke-linecap="round" stroke-linejoin="round"/>
<path d="M23.3779 33.1695C23.5209 33.0732 23.5587 32.8792 23.4624 32.7362C23.366 32.5932 23.172 32.5554 23.029 32.6517C22.8859 32.7481 22.8481 32.9421 22.9445 33.0851C23.0409 33.2281 23.2349 33.2659 23.3779 33.1695Z" stroke="#C84B31" stroke-width="1.66517" stroke-miterlimit="10" stroke-linecap="round" stroke-linejoin="round"/>
<path d="M26.5855 31.2772C26.7372 31.1953 26.7939 31.0059 26.712 30.8542C26.6301 30.7025 26.4407 30.6458 26.2889 30.7277C26.1372 30.8096 26.0805 30.999 26.1624 31.1507C26.2443 31.3025 26.4337 31.3591 26.5855 31.2772Z" stroke="#C84B31" stroke-width="1.66517" stroke-miterlimit="10" stroke-linecap="round" stroke-linejoin="round"/>
<path d="M29.8723 29.6289C30.0315 29.5626 30.1067 29.3797 30.0403 29.2206C29.9739 29.0615 29.791 28.9863 29.6319 29.0527C29.4728 29.119 29.3976 29.3019 29.464 29.461C29.5304 29.6201 29.7132 29.6953 29.8723 29.6289Z" stroke="#C84B31" stroke-width="1.66517" stroke-miterlimit="10" stroke-linecap="round" stroke-linejoin="round"/>
<path d="M33.5134 27.9931C33.5134 28.2013 33.5134 28.3053 33.3053 28.4094C33.0971 28.4094 32.993 28.4094 32.889 28.2013C32.7849 27.9931 32.889 27.889 33.0971 27.785C33.3053 27.6809 33.4093 27.785 33.5134 27.9931Z" stroke="#C84B31" stroke-width="1.66517" stroke-miterlimit="10" stroke-linecap="round" stroke-linejoin="round"/>
<path d="M37.0516 26.9523C37.0516 27.1604 36.9475 27.2645 36.8435 27.2645C36.6353 27.2645 36.5312 27.1604 36.5312 27.0564C36.5312 26.8482 36.6353 26.7441 36.7394 26.7441C36.8435 26.7441 37.0516 26.7441 37.0516 26.9523Z" stroke="#C84B31" stroke-width="1.66517" stroke-miterlimit="10" stroke-linecap="round" stroke-linejoin="round"/>
<path d="M40.6942 26.2238C40.6942 26.432 40.5901 26.536 40.486 26.536C40.2779 26.536 40.1738 26.432 40.1738 26.3279C40.1738 26.1197 40.2779 26.0157 40.382 26.0157C40.486 25.9116 40.6942 26.1197 40.6942 26.2238Z" stroke="#C84B31" stroke-width="1.66517" stroke-miterlimit="10" stroke-linecap="round" stroke-linejoin="round"/>
<path d="M44.3368 25.9118C44.3368 26.12 44.2328 26.224 44.0246 26.224C43.8165 26.224 43.7124 26.12 43.7124 25.9118C43.7124 25.7037 43.8165 25.5996 44.0246 25.5996C44.2328 25.5996 44.3368 25.7037 44.3368 25.9118Z" stroke="#C84B31" stroke-width="1.66517" stroke-miterlimit="10" stroke-linecap="round" stroke-linejoin="round"/>
<path d="M48.0167 25.8394C48.0184 25.667 47.88 25.5258 47.7075 25.5241C47.5351 25.5224 47.3939 25.6609 47.3922 25.8333C47.3905 26.0057 47.5289 26.1469 47.7014 26.1486C47.8738 26.1503 48.015 26.0119 48.0167 25.8394Z" stroke="#C84B31" stroke-width="1.66517" stroke-miterlimit="10" stroke-linecap="round" stroke-linejoin="round"/>
<path d="M51.7621 26.172C51.7812 26.0006 51.6578 25.8462 51.4864 25.8271C51.315 25.808 51.1606 25.9314 51.1415 26.1028C51.1224 26.2742 51.2459 26.4286 51.4172 26.4477C51.5886 26.4668 51.743 26.3434 51.7621 26.172Z" stroke="#C84B31" stroke-width="1.66517" stroke-miterlimit="10" stroke-linecap="round" stroke-linejoin="round"/>
<path d="M55.3605 26.7659C55.3966 26.5973 55.2892 26.4313 55.1206 26.3952C54.952 26.3591 54.7861 26.4665 54.7499 26.6351C54.7138 26.8037 54.8213 26.9697 54.9899 27.0058C55.1585 27.0419 55.3244 26.9345 55.3605 26.7659Z" stroke="#C84B31" stroke-width="1.66517" stroke-miterlimit="10" stroke-linecap="round" stroke-linejoin="round"/>
<path d="M59.0112 27.6809C59.0112 27.8891 58.803 27.8891 58.5949 27.8891C58.3867 27.8891 58.3867 27.6809 58.3867 27.4728C58.3867 27.2646 58.5949 27.2646 58.803 27.2646C58.9071 27.2646 59.0112 27.4728 59.0112 27.6809Z" stroke="#C84B31" stroke-width="1.66517" stroke-miterlimit="10" stroke-linecap="round" stroke-linejoin="round"/>
<path d="M62.4457 28.8255C62.3417 28.9295 62.2376 29.0336 62.0294 29.0336C61.9254 28.9295 61.8213 28.8255 61.8213 28.6173C61.9254 28.5133 62.0294 28.4092 62.2376 28.4092C62.4457 28.5133 62.5498 28.7214 62.4457 28.8255Z" stroke="#C84B31" stroke-width="1.66517" stroke-miterlimit="10" stroke-linecap="round" stroke-linejoin="round"/>
<path d="M65.8799 30.3862C65.7758 30.4902 65.6717 30.5943 65.4636 30.4902C65.3595 30.3862 65.2554 30.2821 65.3595 30.0739C65.4636 29.9699 65.5677 29.8658 65.7758 29.9699C65.8799 29.9699 65.8799 30.178 65.8799 30.3862Z" stroke="#C84B31" stroke-width="1.66517" stroke-miterlimit="10" stroke-linecap="round" stroke-linejoin="round"/>
<path d="M69.1064 32.1557C69.0024 32.2598 68.7942 32.3638 68.6901 32.2598C68.5861 32.1557 68.482 32.0516 68.5861 31.8435C68.6902 31.7394 68.8983 31.6353 69.0024 31.7394C69.1064 31.8435 69.2105 32.0516 69.1064 32.1557Z" stroke="#C84B31" stroke-width="1.66517" stroke-miterlimit="10" stroke-linecap="round" stroke-linejoin="round"/>
<path d="M72.1245 34.2367C72.0204 34.3408 71.8123 34.4449 71.7082 34.3408C71.6041 34.2367 71.5001 34.0286 71.6041 33.9245C71.7082 33.8205 71.9164 33.7164 72.0204 33.8205C72.2286 33.9245 72.2286 34.1327 72.1245 34.2367Z" stroke="#C84B31" stroke-width="1.66517" stroke-miterlimit="10" stroke-linecap="round" stroke-linejoin="round"/>
<path d="M75.0693 36.574C75.1797 36.4415 75.1618 36.2446 75.0293 36.1343C74.8968 36.0239 74.6999 36.0418 74.5895 36.1742C74.4791 36.3067 74.497 36.5035 74.6295 36.6139C74.762 36.7243 74.9589 36.7064 75.0693 36.574Z" stroke="#C84B31" stroke-width="1.66517" stroke-miterlimit="10" stroke-linecap="round" stroke-linejoin="round"/>
<path d="M77.63 39.1743C77.7525 39.053 77.7535 38.8554 77.6322 38.7328C77.5109 38.6103 77.3132 38.6093 77.1907 38.7306C77.0681 38.8519 77.0671 39.0495 77.1884 39.1721C77.3097 39.2946 77.5074 39.2956 77.63 39.1743Z" stroke="#C84B31" stroke-width="1.66517" stroke-miterlimit="10" stroke-linecap="round" stroke-linejoin="round"/>
<path d="M80.1137 41.9652C80.2474 41.8562 80.2673 41.6596 80.1583 41.526C80.0493 41.3923 79.8526 41.3724 79.719 41.4814C79.5854 41.5904 79.5654 41.787 79.6744 41.9206C79.7834 42.0543 79.9801 42.0742 80.1137 41.9652Z" stroke="#C84B31" stroke-width="1.66517" stroke-miterlimit="10" stroke-linecap="round" stroke-linejoin="round"/>
<path d="M82.3018 45.0041C82.4453 44.9085 82.4842 44.7147 82.3887 44.5712C82.2931 44.4276 82.0993 44.3887 81.9557 44.4842C81.8122 44.5798 81.7733 44.7736 81.8688 44.9171C81.9644 45.0607 82.1582 45.0996 82.3018 45.0041Z" stroke="#C84B31" stroke-width="1.66517" stroke-miterlimit="10" stroke-linecap="round" stroke-linejoin="round"/>
<path d="M84.1967 48.1816C84.0926 48.2857 83.8845 48.1816 83.7804 48.0776C83.6763 47.9735 83.7804 47.7653 83.8845 47.6613C83.9886 47.5572 84.1967 47.6613 84.3008 47.7653C84.4049 47.8694 84.3008 48.0776 84.1967 48.1816Z" stroke="#C84B31" stroke-width="1.66517" stroke-miterlimit="10" stroke-linecap="round" stroke-linejoin="round"/>
<path d="M85.8619 51.5107C85.7578 51.6148 85.5497 51.5107 85.4456 51.4067C85.3415 51.3026 85.4456 51.0944 85.6538 50.9904C85.7578 50.8863 85.966 50.9904 86.07 51.0944C86.07 51.1985 85.966 51.4067 85.8619 51.5107Z" stroke="#C84B31" stroke-width="1.66517" stroke-miterlimit="10" stroke-linecap="round" stroke-linejoin="round"/>
<path d="M87.2151 54.9455C87.007 55.0496 86.9029 54.9455 86.7988 54.7374C86.7988 54.5292 86.7988 54.4252 87.007 54.3211C87.111 54.217 87.3192 54.3211 87.4233 54.5292C87.4233 54.7374 87.3192 54.9455 87.2151 54.9455Z" stroke="#C84B31" stroke-width="1.66517" stroke-miterlimit="10" stroke-linecap="round" stroke-linejoin="round"/>
<path d="M88.2556 58.4833C88.0475 58.4833 87.9434 58.3792 87.8394 58.2751C87.8394 58.067 87.8394 57.9629 88.0475 57.9629C88.2556 57.9629 88.3597 58.067 88.4638 58.171C88.5679 58.2751 88.4638 58.4833 88.2556 58.4833Z" stroke="#C84B31" stroke-width="1.66517" stroke-miterlimit="10" stroke-linecap="round" stroke-linejoin="round"/>
<path d="M88.9841 62.1258C88.776 62.1258 88.6719 62.0218 88.6719 61.9177C88.6719 61.7095 88.776 61.6055 88.88 61.6055C89.0882 61.6055 89.1922 61.7095 89.1922 61.8136C89.1922 62.0218 89.0882 62.1258 88.9841 62.1258Z" stroke="#C84B31" stroke-width="1.66517" stroke-miterlimit="10" stroke-linecap="round" stroke-linejoin="round"/>
<path d="M74.5184 84.29C74.5184 85.8511 62.3419 87.1 47.3554 87.1C32.3689 87.1 20.1924 85.8511 20.1924 84.29" stroke="#C84B31" stroke-width="1.66517" stroke-miterlimit="10" stroke-linecap="round" stroke-linejoin="round"/>
<path d="M83.7808 87.0996C91.3781 87.9322 95.9573 89.077 95.9573 90.3259C95.9573 93.0318 74.7264 95.2173 48.6041 95.3214C22.4818 95.4254 1.25098 93.2399 1.25098 90.534C1.25098 89.2851 5.83018 88.1403 13.3234 87.2037" stroke="#C84B31" stroke-width="1.66517" stroke-miterlimit="10" stroke-linecap="round" stroke-linejoin="round"/>
<path d="M20.7124 65.3506L22.5857 66.0791" stroke="#C84B31" stroke-width="1.66517" stroke-miterlimit="10" stroke-linecap="round" stroke-linejoin="round"/>
<path d="M35.5947 54.4248L36.4273 55.5696" stroke="#C84B31" stroke-width="1.66517" stroke-miterlimit="10" stroke-linecap="round" stroke-linejoin="round"/>
<path d="M58.6993 54.4248L57.8667 55.5696" stroke="#C84B31" stroke-width="1.66517" stroke-miterlimit="10" stroke-linecap="round" stroke-linejoin="round"/>
<path d="M73.6857 65.3506L71.9165 65.6628" stroke="#C84B31" stroke-width="1.66517" stroke-miterlimit="10" stroke-linecap="round" stroke-linejoin="round"/>
</svg>
